#!OML:ASF F:\VICON\USERDATA\INSTALL\rory3\rory3.ASF
:FULLY-SPECIFIED
:DEGREES
145
root 0.536481 17.777 37.4726 2.81604 0.0784076 0.447964
lowerback 13.4306 -0.876823 -2.0757
upperback -1.16967 -1.46325 0.502178
thorax -8.74607 -0.593339 2.01433
lowerneck -19.7775 -3.17258 -2.28025
upperneck 18.3334 -4.4581 3.36889
head 9.15385 -1.86643 0.926931
rclavicle -2.29721e-014 -7.1811e-015
rhumerus -57.6488 11.0741 -101.474
rradius 97.0985
rwrist -28.1543
rhand -23.0134 -318.459
rfingers 7.12502
rthumb 3.43019 11.5885
lclavicle -2.29721e-014 -7.1811e-015
lhumerus -35.3281 -6.30835 94.5392
lradius 111.16
lwrist 50.5407
lhand -20.4228 4.68895
lfingers 7.12502
lthumb 5.93164 34.5859
rfemur -46.6546 -2.95663 23.3896
rtibia 78.368
rfoot 2.89089 -5.75756
rtoes 1.78811
lfemur 8.75395 -0.254103 -26.7769
ltibia 31.3707
lfoot -1.00449 -11.0301
ltoes -25.6958
146
root 0.543032 17.8713 38.0276 2.96335 -0.66808 0.0416668
lowerback 12.7194 -1.04937 -1.72137
upperback -1.22582 -1.60591 0.715832
thorax -8.39543 -0.679364 2.05238
lowerneck -19.3975 -2.98123 -2.58295
upperneck 18.3355 -4.14513 3.5133
head 9.08708 -1.73081 1.0732
rclavicle -2.84883e-014 2.4699e-014
rhumerus -58.5322 11.3231 -101.232
rradius 97.057
rwrist -28.2478
rhand -22.6211 -318.285
rfingers 7.12502
rthumb 3.80904 11.7698
lclavicle -2.84883e-014 2.4699e-014
lhumerus -35.1829 -5.875 93.9214
lradius 111.758
lwrist 50.2077
lhand -20.0103 4.822
lfingers 7.12502
lthumb 6.32982 34.7074
rfemur -46.44 -2.09893 24.1608
rtibia 73.9523
rfoot 2.41683 -5.5192
rtoes 0.656202
lfemur 10.7912 -0.0361387 -26.3347
ltibia 29.1389
lfoot 4.45938 -12.7244
ltoes -27.1306
147
root 0.545883 17.9478 38.5767 2.97632 -1.52772 0.251647
lowerback 11.9029 -1.06538 -2.02662
upperback -0.969115 -1.65367 0.756507
thorax -7.64033 -0.703682 2.24785
lowerneck -19.5623 -2.76098 -2.52368
upperneck 18.3931 -3.77616 3.15704
head 9.11479 -1.59196 0.989901
rclavicle 3.21348e-014 1.15295e-014
rhumerus -58.907 11.3521 -100.766
rradius 97.2568
rwrist -28.1372
rhand -22.4742 -318.307
rfingers 7.12502
rthumb 3.95087 11.7501
lclavicle 3.21348e-014 1.15295e-014
lhumerus -34.6068 -5.49704 93.2112
lradius 112.431
lwrist 50.3046
lhand -18.9868 6.0878
lfingers 7.12502
lthumb 7.31786 35.9412
rfemur -46.1731 -1.19369 24.2212
rtibia 69.4055
rfoot 2.30159 -5.27994
rtoes -1.64912
lfemur 12.9226 0.0203525 -26.6745
ltibia 26.7498
lfoot 10.1398 -13.7996
ltoes -25.9706
148
root 0.55025 18.0206 39.1256 2.81806 -2.31801 0.682879
lowerback 12.3594 -1.03666 -2.53301
upperback -1.51456 -1.70625 0.76222
thorax -8.47367 -0.685063 2.57527
lowerneck -18.8721 -2.57653 -2.57267
upperneck 18.78 -3.45757 2.81079
head 9.10883 -1.49114 0.928606
rclavicle -1.13059e-015 -1.25234e-014
rhumerus -60.7634 11.0009 -100.437
rradius 97.939
rwrist -27.9194
rhand -22.4111 -318.497
rfingers 7.12502
rthumb 4.01176 11.5608
lclavicle -1.13059e-015 -1.25234e-014
lhumerus -35.4193 -5.28903 92.8136
lradius 113.042
lwrist 49.8883
lhand -18.8936 6.71318
lfingers 7.12502
lthumb 7.40783 36.5635
rfemur -45.6116 -0.449708 24.0097
rtibia 64.7076
rfoot 2.28364 -4.82808
rtoes -5.92289
lfemur 15.1059 -0.0394202 -27.2741
ltibia 24.579
lfoot 14.8817 -14.5913
ltoes -24.5415
149
root 0.555482 18.0958 39.6755 2.81055 -2.90574 0.673144
lowerback 12.0895 -1.09423 -2.52721
upperback -1.61238 -1.76977 0.845549
thorax -8.4182 -0.714309 2.66657
lowerneck -18.5965 -2.49526 -2.95756
upperneck 18.7411 -3.32107 3.16368
head 9.05535 -1.4193 1.13358
rclavicle -2.57053e-014 8.34896e-015
rhumerus -61.6789 10.7322 -100.063
rradius 98.4458
rwrist -27.9638
rhand -22.0549 -318.946
rfingers 7.12502
rthumb 4.35577 11.1184
lclavicle -2.57053e-014 8.34896e-015
lhumerus -35.4256 -5.43246 92.3238
lradius 113.396
lwrist 49.1056
lhand -19.2365 5.62851
lfingers 7.12502
lthumb 7.07687 35.4902
rfemur -44.8748 0.128101 24.2944
rtibia 59.77
rfoot 2.3434 -4.25477
rtoes -9.40531
lfemur 16.7994 -0.33021 -27.4011
ltibia 23.1303
lfoot 18.7116 -15.5346
ltoes -20.9695
150
root 0.560864 18.1682 40.2118 3.31537 -3.1615 0.337149
lowerback 11.5364 -1.26174 -2.07977
upperback -1.7253 -1.90565 0.977589
thorax -8.22262 -0.801366 2.56357
lowerneck -19.538 -2.64485 -3.0292
upperneck 19.5319 -3.49146 3.09802
head 9.50631 -1.49762 1.09245
rclavicle -2.08724e-015 -2.38542e-014
rhumerus -62.0822 10.5464 -99.6318
rradius 98.7723
rwrist -28.4464
rhand -21.3635 -319.723
rfingers 7.12502
rthumb 5.02339 10.3563
lclavicle -2.08724e-015 -2.38542e-014
lhumerus -35.1983 -5.74018 91.813
lradius 113.803
lwrist 48.2592
lhand -19.21 4.67027
lfingers 7.12502
lthumb 7.10246 34.5311
rfemur -44.5301 0.520112 24.9596
rtibia 54.6772
rfoot 2.96252 -3.74697
rtoes -11.8214
lfemur 17.4592 -1.05149 -27.1991
ltibia 22.4643
lfoot 21.7543 -16.767
ltoes -15.7
151
root 0.557563 18.2262 40.7299 3.75352 -3.63207 -0.301813
lowerback 11.3071 -1.31343 -1.50946
upperback -2.05915 -1.8688 1.24796
thorax -8.46202 -0.796792 2.52344
lowerneck -19.2365 -2.55544 -2.97079
upperneck 19.6369 -3.32512 2.79289
head 9.47578 -1.45424 1.00273
rclavicle -1.01877e-014 1.68967e-014
rhumerus -62.9989 10.2925 -99.1942
rradius 99.1926
rwrist -28.6205
rhand -21.0088 -319.861
rfingers 7.12502
rthumb 5.36582 10.2269
lclavicle -1.01877e-014 1.68967e-014
lhumerus -35.4813 -6.08777 91.4717
lradius 114.244
lwrist 47.6631
lhand -18.6768 4.38924
lfingers 7.12502
lthumb 7.61711 34.2321
rfemur -44.0078 1.15238 25.9311
rtibia 49.6062
rfoot 3.7498 -3.45007
rtoes -13.4165
lfemur 17.8671 -1.77129 -26.7918
ltibia 22.4964
lfoot 23.746 -17.7242
ltoes -11.0763
152
root 0.55893 18.2641 41.258 3.74726 -3.74689 -0.143385
lowerback 11.3043 -1.43711 -1.62063
upperback -2.10484 -2.05099 1.23891
thorax -8.4969 -0.878926 2.61063
lowerneck -19.1997 -2.4373 -2.77245
upperneck 19.5458 -3.16574 2.56739
head 9.42457 -1.39191 0.914192
rclavicle 1.49585e-014 -1.63003e-014
rhumerus -63.6736 9.97468 -98.8603
rradius 99.9057
rwrist -28.101
rhand -21.3886 -319.968
rfingers 7.12502
rthumb 4.99913 10.1113
lclavicle 1.49585e-014 -1.63003e-014
lhumerus -35.3681 -6.58995 91.0164
lradius 114.547
lwrist 47.2594
lhand -18.4836 4.17775
lfingers 7.12502
lthumb 7.8036 34.0137
rfemur -43.0458 1.13949 26.0229
rtibia 44.8246
rfoot 4.11798 -3.16251
rtoes -14.8101
lfemur 18.5348 -2.62497 -27.2622
ltibia 23.2097
lfoot 24.1186 -17.6515
ltoes -8.54397
153
root 0.570602 18.2984 41.8056 3.50469 -3.49724 0.640581
lowerback 10.9192 -1.5956 -2.04588
upperback -1.70433 -2.33465 0.982907
thorax -7.82158 -1.02023 2.60137
lowerneck -19.7123 -2.41652 -2.65048
upperneck 19.243 -3.11798 2.42726
head 9.40535 -1.3727 0.847894
rclavicle -1.68346e-014 1.8487e-014
rhumerus -63.6849 9.43177 -98.448
rradius 100.713
rwrist -27.3197
rhand -22.0671 -320.382
rfingers 7.12502
rthumb 4.34393 9.68211
lclavicle -1.68346e-014 1.8487e-014
lhumerus -34.6633 -7.2089 90.7315
lradius 114.742
lwrist 46.6832
lhand -18.219 4.68843
lfingers 7.12502
lthumb 8.05894 34.5148
rfemur -41.8306 0.431913 25.456
rtibia 40.3769
rfoot 4.48103 -2.87857
rtoes -14.2166
lfemur 19.275 -3.56648 -28.4219
ltibia 24.422
lfoot 23.2134 -16.5525
ltoes -9.29262
154
root 0.565217 18.3081 42.3365 3.54693 -4.0753 0.975243
lowerback 10.9635 -1.36083 -2.31092
upperback -2.72566 -2.07284 0.942624
thorax -8.9609 -0.847813 2.6919
lowerneck -16.004 -2.36816 -3.32225
upperneck 18.1153 -3.02541 2.77658
head 8.36641 -1.37747 1.12044
rclavicle -1.16413e-014 2.52457e-014
rhumerus -66.3383 8.41303 -98.1014
rradius 101.535
rwrist -26.4371
rhand -22.4727 -320.635
rfingers 7.12502
rthumb 3.95229 9.42164
lclavicle -1.16413e-014 2.52457e-014
lhumerus -36.8625 -8.02482 91.3141
lradius 115.127
lwrist 45.9305
lhand -18.4663 4.96469
lfingers 7.12502
lthumb 7.82029 34.8001
rfemur -41.0727 0.565146 25.4918
rtibia 36.5
rfoot 5.17228 -2.91783
rtoes -13.3879
lfemur 19.5046 -3.66766 -29.0747
ltibia 26.057
lfoot 21.8983 -14.9238
ltoes -11.8993
155
root 0.548124 18.3103 42.8391 3.56197 -4.26736 0.964311
lowerback 11.2611 -1.37545 -2.56541
upperback -2.58925 -2.12803 1.01994
thorax -8.97065 -0.859131 2.93596
lowerneck -17.3975 -2.55461 -3.11987
upperneck 18.7112 -3.26478 2.58357
head 8.8198 -1.48198 0.979833
rclavicle 3.35449e-016 -6.36111e-015
rhumerus -66.1258 8.12497 -97.7352
rradius 101.885
rwrist -25.8943
rhand -22.2105 -320.294
rfingers 7.12502
rthumb 4.20552 9.76804
lclavicle 3.35449e-016 -6.36111e-015
lhumerus -36.3464 -8.55913 91.0526
lradius 115.17
lwrist 45.4656
lhand -18.6374 4.76804
lfingers 7.12502
lthumb 7.65513 34.6095
rfemur -40.5453 0.945412 25.8464
rtibia 33.1806
rfoot 5.46845 -3.9131
rtoes -16.6857
lfemur 19.3424 -3.95083 -29.1126
ltibia 28.3269
lfoot 20.6253 -13.8619
ltoes -14.5013
156
root 0.535479 18.2756 43.3388 3.37845 -4.32418 1.25047
lowerback 11.4451 -1.34863 -2.94175
upperback -2.41472 -2.15425 0.973203
thorax -8.87477 -0.857159 3.10565
lowerneck -17.4665 -2.58719 -3.17896
upperneck 18.2437 -3.31487 2.74796
head 8.67814 -1.4922 1.03844
rclavicle 1.97791e-014 -2.127e-014
rhumerus -65.8502 7.6292 -97.2138
rradius 102.223
rwrist -25.9294
rhand -21.4317 -320.051
rfingers 7.12502
rthumb 4.95754 10.0272
lclavicle 1.97791e-014 -2.127e-014
lhumerus -35.8921 -9.21856 90.9306
lradius 114.978
lwrist 45.0817
lhand -18.3443 4.82295
lfingers 7.12502
lthumb 7.93806 34.6539
rfemur -39.4486 1.02693 25.8125
rtibia 30.4527
rfoot 5.17085 -4.62379
rtoes -16.9664
lfemur 19.0217 -4.08157 -29.3517
ltibia 31.3319
lfoot 19.3875 -12.998
ltoes -15.0876
157
root 0.547672 18.2538 43.8453 3.1844 -3.73426 1.4978
lowerback 11.7371 -1.58296 -2.77544
upperback -2.40912 -2.46122 0.852902
thorax -9.02729 -1.01398 2.95182
lowerneck -16.8872 -2.48922 -3.15972
upperneck 17.6891 -3.18337 2.72653
head 8.38187 -1.43811 1.04987
rclavicle -2.15806e-014 -7.7526e-015
rhumerus -65.7447 7.20903 -96.9241
rradius 102.185
rwrist -25.8465
rhand -21.4129 -319.981
rfingers 7.12502
rthumb 4.97572 10.0972
lclavicle -2.15806e-014 -7.7526e-015
lhumerus -35.9768 -9.60636 90.9778
lradius 114.746
lwrist 44.6545
lhand -18.4965 4.53556
lfingers 7.12502
lthumb 7.7911 34.372
rfemur -38.6147 0.3687 25.7858
rtibia 28.4329
rfoot 5.25587 -4.99633
rtoes -17.6706
lfemur 18.4346 -4.75318 -29.4651
ltibia 34.6963
lfoot 19.0292 -11.8525
ltoes -12.8201
158
root 0.531654 18.221 44.3522 3.31567 -4.25922 1.53012
lowerback 11.6072 -1.40653 -2.96195
upperback -2.40759 -2.2499 0.850645
thorax -8.95824 -0.903819 3.00975
lowerneck -17.1336 -2.82363 -3.4259
upperneck 17.7898 -3.60199 2.88145
head 8.48141 -1.63481 1.09132
rclavicle 3.62782e-015 -1.31198e-014
rhumerus -65.788 6.56544 -96.6949
rradius 102.763
rwrist -25.4739
rhand -21.494 -319.956
rfingers 7.12502
rthumb 4.89737 10.1211
lclavicle 3.62782e-015 -1.31198e-014
lhumerus -36.0247 -9.7048 91.0881
lradius 114.421
lwrist 44.3256
lhand -18.6863 4.60815
lfingers 7.12502
lthumb 7.60791 34.4513
rfemur -38.2289 1.02605 25.989
rtibia 27.1608
rfoot 5.90356 -5.4437
rtoes -17.1168
lfemur 17.2449 -4.49242 -29.3129
ltibia 38.3109
lfoot 19.0034 -11.0746
ltoes -10.2794
